<svg xmlns="http://www.w3.org/2000/svg" width="128" height="128" viewBox="0 0 128 128">
  <!--
    Reverse Engineering Academy mark: Clawd in a construction hard hat.
    Built to the same rules as src/components/ui/Clawd.tsx — axis-aligned
    rects only, small rx, no curves, no strokes, no gradients. Clawd's fixed
    colours: body #da7756, ink #0d0d0d; hard hat #f2b705 with a #d99106 ridge.
    Ivory tile so the mark stays legible on dark browser tabs too.
    Kept in sync with BrandMark in src/components/ui/Illustration.tsx.
  -->
  <rect width="128" height="128" rx="26" fill="#F0EEE6" />

  <!-- hard hat: tall stepped dome (axis-aligned rects only, no curves) with a
       centre ridge, over a short thick brim that overhangs the dome by only a
       few units. Row widths widen fast then slow so the shoulder reads round
       rather than conical; a wide thin brim would read as a sun hat. -->
  <rect x="46" y="7" width="36" height="6" rx="3" fill="#f2b705" />
  <rect x="37" y="12" width="54" height="8" fill="#f2b705" />
  <rect x="31" y="19" width="66" height="9" fill="#f2b705" />
  <rect x="28" y="27" width="72" height="10" fill="#f2b705" />
  <rect x="57" y="7" width="14" height="30" fill="#ffd23f" />
  <rect x="22" y="36" width="84" height="12" rx="3" fill="#f2b705" />
  <rect x="22" y="43" width="84" height="5" rx="2" fill="#d99106" />

  <!-- ears -->
  <rect x="12" y="60" width="14" height="13" rx="2" fill="#da7756" />
  <rect x="102" y="60" width="14" height="13" rx="2" fill="#da7756" />

  <!-- body: ONE solid rectangle -->
  <rect x="26" y="45" width="76" height="46" rx="4" fill="#da7756" />

  <!-- 4 legs, centre gap wider than the outer gaps -->
  <rect x="32" y="91" width="11" height="15" rx="2" fill="#da7756" />
  <rect x="50" y="91" width="11" height="15" rx="2" fill="#da7756" />
  <rect x="72" y="91" width="11" height="15" rx="2" fill="#da7756" />
  <rect x="90" y="91" width="11" height="15" rx="2" fill="#da7756" />

  <!-- square eyes -->
  <rect x="41" y="60" width="13" height="13" fill="#0d0d0d" />
  <rect x="76" y="60" width="13" height="13" fill="#0d0d0d" />
</svg>
